Coordinates
version=1
nRows=17
nColumns=63
inDegrees=yes

Units are S.I. units (second, meters, Newtons, ...)
If the header above contains a line with 'inDegrees', this indicates whether rotational values are in degrees (yes) or radians (no).

endheader
time	pelvis_tilt	pelvis_list	pelvis_rotation	pelvis_tx	pelvis_ty	pelvis_tz	hip_flexion_r	hip_adduction_r	hip_rotation_r	knee_angle_r	knee_angle_r_beta	ankle_angle_r	subtalar_angle_r	mtp_angle_r	hip_flexion_l	hip_adduction_l	hip_rotation_l	knee_angle_l	knee_angle_l_beta	ankle_angle_l	subtalar_angle_l	mtp_angle_l	L5_S1_Flex_Ext	L5_S1_Lat_Bending	L5_S1_axial_rotation	L4_L5_Flex_Ext	L4_L5_Lat_Bending	L4_L5_axial_rotation	L3_L4_Flex_Ext	L3_L4_Lat_Bending	L3_L4_axial_rotation	L2_L3_Flex_Ext	L2_L3_Lat_Bending	L2_L3_axial_rotation	L1_L2_Flex_Ext	L1_L2_Lat_Bending	L1_L2_axial_rotation	L1_T12_Flex_Ext	L1_T12_Lat_Bending	L1_T12_axial_rotation	Abs_r3	Abs_r2	Abs_r1	Abs_t1	Abs_t2	neck_flexion	neck_bending	neck_rotation	arm_flex_r	arm_add_r	arm_rot_r	elbow_flex_r	pro_sup_r	wrist_flex_r	wrist_dev_r	arm_flex_l	arm_add_l	arm_rot_l	elbow_flex_l	pro_sup_l	wrist_flex_l	wrist_dev_l
4.980769	-4.709452	-16.622201	90.133031	-0.127161	0.764279	0.670925	25.764674	-9.830309	-3.627784	29.520918	0.515237	30.513294	-7.052366	0.000000	19.254902	6.736564	-13.385211	13.314785	0.232387	35.767670	16.500928	0.000000	-0.062771	0.754110	-3.629700	-0.116573	1.002966	-3.856557	-0.103127	1.833543	-3.856557	-0.071742	1.833543	-3.175988	-0.058290	1.537781	-2.949132	-0.035868	1.168116	-2.722275	-0.448370	8.530643	-20.187305	0.000000	0.000000	27.320166	-2.943670	37.355390	-19.672749	-64.419175	-47.076321	17.772924	3.186968	-3.348747	9.205653	14.341330	-81.995615	39.061470	9.632540	51.888552	-20.177425	-8.088590
5.000000	-4.736405	-16.741147	89.050448	-0.124109	0.764450	0.670702	26.067597	-9.234651	-2.508111	29.387705	0.512912	30.401743	-7.115495	0.000000	19.458432	6.269390	-14.447037	13.379807	0.233522	35.948531	16.500807	0.000000	-0.040134	0.688982	-3.615457	-0.074533	0.916346	-3.841423	-0.065936	1.675190	-3.841423	-0.045869	1.675190	-3.163525	-0.037268	1.404971	-2.937559	-0.022933	1.067233	-2.711593	-0.286674	7.793899	-20.108089	0.000000	0.000000	27.330626	-1.522059	36.698206	-19.885794	-64.676274	-44.744206	17.187743	3.505461	-3.446671	8.285559	17.206187	-82.100229	48.092341	9.211012	51.798839	-19.442508	-6.979702
5.019231	-4.726695	-16.846755	87.966902	-0.120857	0.764690	0.670284	26.269994	-8.600848	-1.493793	29.154458	0.508841	30.272021	-7.067663	0.000000	19.609122	5.757747	-15.457197	13.401608	0.233902	36.105375	16.465069	0.000000	-0.015170	0.616048	-3.572738	-0.028172	0.819344	-3.796034	-0.024922	1.497860	-3.796034	-0.017337	1.497860	-3.126145	-0.014087	1.256246	-2.902849	-0.008668	0.954259	-2.679553	-0.108355	6.968863	-19.870494	0.000000	0.000000	27.357702	0.003069	35.699465	-20.297822	-65.012191	-41.985808	16.563528	4.886043	-3.642033	7.142442	21.061839	-82.058027	59.162140	8.466474	52.397973	-18.487333	-5.486100
5.038462	-4.660072	-16.933698	86.883886	-0.117531	0.765003	0.669626	26.359193	-7.936882	-0.652686	28.813161	0.502885	30.137376	-6.805419	0.000000	19.684266	5.203308	-16.379419	13.349587	0.232994	36.233848	16.378967	0.000000	0.012644	0.542237	-3.512859	0.023481	0.721175	-3.732412	0.020773	1.318395	-3.732412	0.014451	1.318395	-3.073751	0.011741	1.105730	-2.854198	0.007225	0.839925	-2.634644	0.090315	6.133895	-19.537466	0.000000	0.000000	27.398753	1.576546	34.526242	-20.863771	-65.435556	-39.148996	16.061493	6.954460	-3.866111	5.986585	24.480362	-81.833685	68.877557	7.488857	53.543823	-17.984370	-4.666790
5.057692	-4.538886	-16.997753	85.875370	-0.114109	0.765368	0.668765	26.313963	-7.243589	0.052100	28.360981	0.494992	29.982288	-6.482718	0.000000	19.698196	4.607870	-17.139320	13.271703	0.231635	36.350784	16.226437	0.000000	0.041912	0.468077	-3.445821	0.077835	0.622542	-3.661184	0.068858	1.138081	-3.661184	0.047902	1.138081	-3.015093	0.038920	0.954502	-2.799729	0.023949	0.725051	-2.584365	0.299375	5.294976	-19.164620	0.000000	0.000000	27.447423	3.170512	33.197404	-21.721569	-65.794347	-37.100858	15.863396	10.845679	-4.343490	4.781338	27.929576	-81.479940	78.488348	6.424039	54.498066	-17.647282	-4.287709
5.076923	-4.415021	-17.016528	84.850298	-0.110519	0.765779	0.667715	26.145498	-6.568788	0.634273	27.830934	0.485741	29.819042	-5.996318	0.000000	19.606255	4.015932	-17.832619	13.128087	0.229128	36.439460	16.032212	0.000000	0.071280	0.390422	-3.364589	0.132374	0.519261	-3.574875	0.117106	0.949272	-3.574875	0.081466	0.949272	-2.944015	0.066190	0.796149	-2.733728	0.040729	0.604764	-2.523441	0.509145	4.416532	-18.712832	0.000000	0.000000	27.505984	4.715443	31.807571	-22.835221	-66.034644	-36.037404	16.059099	14.451927	-4.861041	3.765070	31.042099	-81.044930	87.741515	5.383385	55.308190	-17.399708	-4.028456
5.096154	-4.324242	-16.969692	83.784455	-0.106707	0.766231	0.666517	25.851846	-5.945530	1.127885	27.248933	0.475584	29.646062	-5.370750	0.000000	19.380342	3.468339	-18.469771	12.897940	0.225112	36.477539	15.757306	0.000000	0.100390	0.305578	-3.271730	0.186433	0.406419	-3.476213	0.164930	0.742983	-3.476213	0.114735	0.742983	-2.862764	0.093222	0.623136	-2.658281	0.057363	0.473341	-2.453798	0.717072	3.456765	-18.196382	0.000000	0.000000	27.572365	6.142972	30.346350	-23.911118	-66.116651	-35.972630	16.587558	17.283846	-5.324015	3.057416	33.738793	-80.587980	96.585102	4.428872	56.218289	-17.126325	-3.647521
5.115385	-4.271617	-16.838741	82.662337	-0.102667	0.766739	0.665191	25.424181	-5.386828	1.514777	26.619104	0.464591	29.463747	-4.567771	0.000000	19.012427	2.967675	-19.122181	12.602836	0.219961	36.473791	15.437225	0.000000	0.127410	0.213721	-3.168707	0.236614	0.284249	-3.366752	0.209322	0.519642	-3.366752	0.145617	0.519642	-2.772619	0.118313	0.435820	-2.574575	0.072802	0.331054	-2.376531	0.910079	2.417657	-17.623400	0.000000	0.000000	27.647732	7.433249	28.879071	-24.668325	-65.994421	-37.347845	17.406258	19.385000	-5.600815	2.808007	35.805358	-80.135709	104.802667	3.648035	57.235914	-16.816453	-3.078020
5.134615	-4.260601	-16.623725	81.476783	-0.098443	0.767289	0.663763	24.879380	-4.904050	1.791416	25.956165	0.453021	29.287243	-3.562847	0.000000	18.510177	2.522952	-19.831810	12.249046	0.213786	36.433122	15.084448	0.000000	0.153044	0.115498	-3.053735	0.284218	0.153612	-3.244593	0.251436	0.280822	-3.244593	0.174914	0.280822	-2.672018	0.142117	0.235523	-2.481160	0.087449	0.178906	-2.290301	1.093179	1.306535	-16.983958	0.000000	0.000000	27.731180	8.560917	27.431585	-25.065336	-65.695288	-40.095341	18.444004	20.795362	-5.557978	2.888394	37.151013	-79.707328	112.172821	3.071231	58.462133	-16.445763	-2.272100
5.153846	-4.281520	-16.324458	80.238505	-0.094076	0.767874	0.662285	24.227576	-4.489940	1.995434	25.265253	0.440962	29.129982	-2.400121	0.000000	17.890054	2.132149	-20.583701	11.860764	0.207009	36.369184	14.665253	0.000000	0.175654	0.011582	-2.919304	0.326207	0.015404	-3.101760	0.288582	0.028160	-3.101760	0.200755	0.028160	-2.554391	0.163112	0.023618	-2.371934	0.100369	0.017940	-2.189478	1.254677	0.131017	-16.236292	0.000000	0.000000	27.821008	9.456838	25.897788	-25.248151	-65.240228	-44.040137	19.617977	21.490492	-5.112352	3.273065	38.155584	-79.330249	119.393674	2.755601	59.406917	-15.934038	-1.159044
5.173077	-4.328616	-15.958517	78.961522	-0.089675	0.768476	0.660802	23.504318	-4.150933	2.100441	24.562467	0.428696	29.010150	-1.047875	0.000000	17.181282	1.794762	-21.430346	11.448475	0.199814	36.299427	14.249796	0.000000	0.195363	-0.095349	-2.768319	0.362809	-0.126814	-2.941339	0.320962	-0.231832	-2.941339	0.223280	-0.231832	-2.422279	0.181414	-0.194436	-2.249259	0.111630	-0.147696	-2.076239	1.395459	-1.078607	-15.396561	0.000000	0.000000	27.911818	10.109421	24.331222	-25.346964	-64.714320	-48.616899	20.867525	21.751934	-4.466630	3.767804	38.198342	-79.008948	124.554379	2.672859	60.730615	-15.349497	0.171460
5.192308	-4.396972	-15.541938	77.668393	-0.085309	0.769066	0.659381	22.737253	-3.884933	2.119800	23.859275	0.416423	28.938300	0.461444	0.000000	16.414566	1.512002	-22.367887	11.030890	0.192525	36.233605	13.854630	0.000000	0.211520	-0.203725	-2.601264	0.392813	-0.270954	-2.763843	0.347505	-0.495337	-2.763843	0.241746	-0.495337	-2.276106	0.196417	-0.415436	-2.113527	0.120862	-0.315570	-1.950948	1.510863	-2.304579	-14.467449	0.000000	0.000000	27.996102	10.479328	22.723372	-25.574071	-64.212634	-53.107555	22.113589	21.680498	-3.849420	4.277591	37.196830	-78.752011	127.267399	2.800957	62.190133	-14.695935	1.550099
5.211538	-4.485707	-15.083947	76.374723	-0.081019	0.769632	0.658107	21.952174	-3.689348	2.072738	23.169645	0.404387	28.921237	2.094589	0.000000	15.616014	1.285617	-23.360640	10.630299	0.185534	36.174451	13.458319	0.000000	0.221827	-0.313182	-2.413643	0.411955	-0.416532	-2.564495	0.364440	-0.761471	-2.564495	0.253526	-0.761471	-2.111937	0.205989	-0.638641	-1.961085	0.126752	-0.485119	-1.810232	1.584489	-3.542780	-13.423957	0.000000	0.000000	28.063887	10.519175	21.032969	-26.088527	-63.801901	-56.996951	23.239360	21.399895	-3.414499	4.798473	35.409537	-78.583817	127.571268	3.159045	63.887511	-13.943418	2.868185
5.230769	-4.595113	-14.603093	75.102496	-0.076864	0.770156	0.657017	21.182166	-3.554861	1.998357	22.511818	0.392905	28.966445	3.782447	0.000000	14.814640	1.116366	-24.396196	10.262364	0.179112	36.117845	13.070409	0.000000	0.226763	-0.422322	-2.215545	0.421121	-0.561688	-2.354017	0.372548	-1.026834	-2.354017	0.259167	-1.026834	-1.938602	0.210572	-0.861199	-1.800130	0.129572	-0.654177	-1.661659	1.619743	-4.777392	-12.322196	0.000000	0.000000	28.111267	10.221593	19.333862	-26.786968	-63.540574	-59.986141	24.179138	20.900852	-3.315169	5.331844	32.791505	-78.528050	125.495355	3.747643	65.849677	-13.148861	4.005169
5.250000	-4.677054	-14.117686	73.914977	-0.072949	0.770645	0.656130	20.413552	-3.452658	1.854753	21.855278	0.381447	29.068260	5.523166	0.000000	14.038642	0.957976	-25.433086	9.981055	0.174202	36.093228	12.720372	0.000000	0.226052	-0.524517	-2.029627	0.419800	-0.697607	-2.156479	0.371380	-1.275310	-2.156479	0.258354	-1.275310	-1.775924	0.209911	-1.069594	-1.649072	0.129166	-0.812476	-1.522220	1.614663	-5.933436	-11.288177	0.000000	0.000000	28.158913	9.691239	17.750246	-27.469139	-63.435793	-62.346354	24.971741	20.057657	-3.598871	5.922819	29.144118	-78.584229	120.886398	4.575085	68.203548	-12.368236	4.960866
5.269231	-4.755879	-13.640188	72.774318	-0.069177	0.771106	0.655474	19.686316	-3.354361	1.770367	21.229525	0.370525	29.204973	7.187427	0.000000	13.311139	0.803568	-26.505987	9.800748	0.171055	36.090292	12.407265	0.000000	0.221342	-0.624219	-1.848915	0.411055	-0.830211	-1.964472	0.363643	-1.517726	-1.964472	0.252972	-1.517726	-1.617800	0.205538	-1.272907	-1.502243	0.126475	-0.966915	-1.386686	1.581025	-7.061288	-10.283109	0.000000	0.000000	28.194750	8.983257	16.296621	-28.039168	-63.500004	-63.460714	25.577997	18.623498	-4.219271	6.316273	26.585381	-78.722016	118.955321	5.264930	69.172377	-11.448401	5.591645
5.288462	-4.826568	-13.190813	71.710933	-0.065586	0.771545	0.655030	19.015129	-3.264496	1.715572	20.627846	0.360024	29.379377	8.785382	0.000000	12.654688	0.651722	-27.587244	9.718522	0.169620	36.103646	12.141264	0.000000	0.214232	-0.721382	-1.670292	0.397850	-0.959438	-1.774685	0.351962	-1.753967	-1.774685	0.244846	-1.753967	-1.461505	0.198936	-1.471041	-1.357112	0.122412	-1.117420	-1.252719	1.530239	-8.160414	-9.289662	0.000000	0.000000	28.241349	8.129782	14.922120	-28.439222	-63.605900	-64.056568	26.069072	16.699657	-5.044925	6.703863	24.554683	-78.967493	119.341995	5.849706	69.717198	-10.309287	6.460896
